<mxfile host="app.diagrams.net" modified="2024-04-24T13:58:14.699Z" agent="Mozilla/5.0 (Windows NT 10.0; Win64; x64) AppleWebKit/537.36 (KHTML, like Gecko) Chrome/124.0.0.0 Safari/537.36" etag="QfClW6p-GGqqZCYifEy_" version="24.3.0" type="github">
  <diagram name="Page-1" id="c7488fd3-1785-93aa-aadb-54a6760d102a">
    <mxGraphModel dx="2487" dy="908" grid="1" gridSize="10" guides="1" tooltips="1" connect="1" arrows="1" fold="1" page="0" pageScale="1" pageWidth="1100" pageHeight="850" background="none" math="0" shadow="0">
      <root>
        <mxCell id="0" />
        <mxCell id="1" parent="0" />
        <mxCell id="VpYOYdDEtLLiw2a9x_M3-15" value="" style="rounded=1;whiteSpace=wrap;html=1;fillColor=none;dashed=1;dashPattern=8 8;" vertex="1" parent="1">
          <mxGeometry x="-580" y="410" width="440" height="190" as="geometry" />
        </mxCell>
        <mxCell id="VpYOYdDEtLLiw2a9x_M3-12" value="" style="rounded=1;whiteSpace=wrap;html=1;fillColor=none;dashed=1;dashPattern=8 8;strokeColor=#000000;" vertex="1" parent="1">
          <mxGeometry x="-580" y="47" width="440" height="340" as="geometry" />
        </mxCell>
        <mxCell id="KSi--I2HWIigC96DzlO8-2" value="" style="strokeWidth=2;html=1;shape=mxgraph.flowchart.annotation_1;align=left;pointerEvents=1;" parent="1" vertex="1">
          <mxGeometry x="720" y="450" height="100" as="geometry" />
        </mxCell>
        <mxCell id="KSi--I2HWIigC96DzlO8-4" value="Invoices after Imagemagick" style="swimlane;whiteSpace=wrap;html=1;" parent="1" vertex="1">
          <mxGeometry x="310" y="260" width="200" height="200" as="geometry" />
        </mxCell>
        <mxCell id="KSi--I2HWIigC96DzlO8-6" value="tesseract" style="rhombus;whiteSpace=wrap;html=1;" parent="1" vertex="1">
          <mxGeometry x="848" y="450" width="80" height="80" as="geometry" />
        </mxCell>
        <mxCell id="KSi--I2HWIigC96DzlO8-7" value="table&lt;div&gt;&amp;nbsp;extracror&lt;/div&gt;" style="rhombus;whiteSpace=wrap;html=1;" parent="1" vertex="1">
          <mxGeometry x="768" y="450" width="80" height="80" as="geometry" />
        </mxCell>
        <mxCell id="KSi--I2HWIigC96DzlO8-8" value="&lt;font style=&quot;font-size: 15px;&quot;&gt;preprocessor&lt;/font&gt;&lt;div&gt;custom opencv pipeline&lt;/div&gt;" style="rounded=1;whiteSpace=wrap;html=1;" parent="1" vertex="1">
          <mxGeometry x="610" y="330" width="120" height="60" as="geometry" />
        </mxCell>
        <mxCell id="KSi--I2HWIigC96DzlO8-9" value="Output data Folder" style="swimlane;whiteSpace=wrap;html=1;" parent="1" vertex="1">
          <mxGeometry x="310" y="490" width="200" height="200" as="geometry" />
        </mxCell>
        <mxCell id="VpYOYdDEtLLiw2a9x_M3-1" value="raw Invoices Folder" style="swimlane;whiteSpace=wrap;html=1;" vertex="1" parent="1">
          <mxGeometry x="-560" y="77" width="200" height="200" as="geometry" />
        </mxCell>
        <mxCell id="VpYOYdDEtLLiw2a9x_M3-9" value="&lt;font style=&quot;font-size: 17px;&quot;&gt;pdf invoices on server&lt;/font&gt;" style="text;html=1;align=center;verticalAlign=middle;resizable=0;points=[];autosize=1;strokeColor=none;fillColor=none;strokeWidth=4;" vertex="1" parent="VpYOYdDEtLLiw2a9x_M3-1">
          <mxGeometry x="5" y="85" width="190" height="30" as="geometry" />
        </mxCell>
        <mxCell id="VpYOYdDEtLLiw2a9x_M3-4" value="Collected Invoices copies" style="swimlane;whiteSpace=wrap;html=1;" vertex="1" parent="1">
          <mxGeometry x="-117" y="260" width="200" height="200" as="geometry" />
        </mxCell>
        <mxCell id="VpYOYdDEtLLiw2a9x_M3-2" style="rounded=0;orthogonalLoop=1;jettySize=auto;html=1;" edge="1" parent="VpYOYdDEtLLiw2a9x_M3-4">
          <mxGeometry relative="1" as="geometry">
            <mxPoint x="17" y="40" as="targetPoint" />
            <mxPoint x="-240" y="-80" as="sourcePoint" />
            <Array as="points">
              <mxPoint x="-40" y="-80" />
              <mxPoint x="-40" y="40" />
            </Array>
          </mxGeometry>
        </mxCell>
        <mxCell id="VpYOYdDEtLLiw2a9x_M3-6" style="edgeStyle=orthogonalEdgeStyle;rounded=0;orthogonalLoop=1;jettySize=auto;html=1;entryX=0;entryY=0.5;entryDx=0;entryDy=0;exitX=1;exitY=0.5;exitDx=0;exitDy=0;" edge="1" parent="1" source="VpYOYdDEtLLiw2a9x_M3-4" target="KSi--I2HWIigC96DzlO8-4">
          <mxGeometry relative="1" as="geometry">
            <mxPoint x="110" y="360" as="targetPoint" />
            <mxPoint x="90" y="360" as="sourcePoint" />
            <Array as="points" />
          </mxGeometry>
        </mxCell>
        <mxCell id="VpYOYdDEtLLiw2a9x_M3-19" style="rounded=0;orthogonalLoop=1;jettySize=auto;html=1;" edge="1" parent="1">
          <mxGeometry relative="1" as="geometry">
            <mxPoint x="-100" y="430" as="targetPoint" />
            <mxPoint x="-340" y="520" as="sourcePoint" />
            <Array as="points">
              <mxPoint x="-160" y="520" />
              <mxPoint x="-160" y="430" />
            </Array>
          </mxGeometry>
        </mxCell>
        <mxCell id="VpYOYdDEtLLiw2a9x_M3-20" value="&lt;font style=&quot;font-size: 14px;&quot;&gt;manually&lt;/font&gt;&lt;div style=&quot;font-size: 14px;&quot;&gt;&lt;font style=&quot;font-size: 14px;&quot;&gt;adding&lt;/font&gt;&lt;/div&gt;" style="triangle;whiteSpace=wrap;html=1;align=left;" vertex="1" parent="1">
          <mxGeometry x="-430" y="450" width="95" height="140" as="geometry" />
        </mxCell>
        <mxCell id="VpYOYdDEtLLiw2a9x_M3-21" value="&lt;span style=&quot;font-size: 17px;&quot;&gt;Folder with images&lt;/span&gt;" style="text;html=1;align=center;verticalAlign=middle;resizable=0;points=[];autosize=1;strokeColor=none;fillColor=none;" vertex="1" parent="1">
          <mxGeometry x="-103" y="348" width="170" height="30" as="geometry" />
        </mxCell>
        <mxCell id="VpYOYdDEtLLiw2a9x_M3-23" value="&lt;font style=&quot;font-size: 16px;&quot;&gt;imagemagick&lt;/font&gt;&lt;div&gt;rotate + filters&lt;/div&gt;" style="rounded=1;whiteSpace=wrap;html=1;" vertex="1" parent="1">
          <mxGeometry x="120" y="327" width="120" height="60" as="geometry" />
        </mxCell>
        <mxCell id="VpYOYdDEtLLiw2a9x_M3-3" value="Invoice_scanner" style="rounded=1;whiteSpace=wrap;html=1;" vertex="1" parent="1">
          <mxGeometry x="-320" y="150" width="120" height="60" as="geometry" />
        </mxCell>
        <mxCell id="VpYOYdDEtLLiw2a9x_M3-25" value="" style="curved=1;endArrow=classic;html=1;rounded=0;exitX=0.5;exitY=0;exitDx=0;exitDy=0;entryX=0.413;entryY=0.033;entryDx=0;entryDy=0;entryPerimeter=0;" edge="1" parent="1" source="KSi--I2HWIigC96DzlO8-8" target="VpYOYdDEtLLiw2a9x_M3-23">
          <mxGeometry width="50" height="50" relative="1" as="geometry">
            <mxPoint x="390" y="420" as="sourcePoint" />
            <mxPoint x="350" y="170" as="targetPoint" />
            <Array as="points">
              <mxPoint x="420" y="60" />
            </Array>
          </mxGeometry>
        </mxCell>
        <mxCell id="VpYOYdDEtLLiw2a9x_M3-26" value="ОБЪЕДИНИТЬ!" style="edgeLabel;html=1;align=center;verticalAlign=middle;resizable=0;points=[];" vertex="1" connectable="0" parent="VpYOYdDEtLLiw2a9x_M3-25">
          <mxGeometry x="0.3003" y="81" relative="1" as="geometry">
            <mxPoint as="offset" />
          </mxGeometry>
        </mxCell>
        <mxCell id="VpYOYdDEtLLiw2a9x_M3-27" value="easyOCR" style="rhombus;whiteSpace=wrap;html=1;" vertex="1" parent="1">
          <mxGeometry x="928" y="450" width="80" height="80" as="geometry" />
        </mxCell>
        <mxCell id="VpYOYdDEtLLiw2a9x_M3-29" value="&lt;font style=&quot;font-size: 15px;&quot;&gt;postprocessor&lt;/font&gt;&lt;div&gt;custom regular expressions pipeline&lt;/div&gt;" style="rounded=1;whiteSpace=wrap;html=1;" vertex="1" parent="1">
          <mxGeometry x="866" y="600" width="120" height="60" as="geometry" />
        </mxCell>
        <mxCell id="VpYOYdDEtLLiw2a9x_M3-34" value="" style="endArrow=classic;html=1;rounded=0;exitX=0.5;exitY=1;exitDx=0;exitDy=0;entryX=0.917;entryY=0;entryDx=0;entryDy=0;entryPerimeter=0;" edge="1" parent="1">
          <mxGeometry width="50" height="50" relative="1" as="geometry">
            <mxPoint x="887.86" y="530" as="sourcePoint" />
            <mxPoint x="887.86" y="600" as="targetPoint" />
          </mxGeometry>
        </mxCell>
        <mxCell id="VpYOYdDEtLLiw2a9x_M3-35" value="" style="endArrow=classic;html=1;rounded=0;exitX=0.5;exitY=1;exitDx=0;exitDy=0;entryX=0.917;entryY=0;entryDx=0;entryDy=0;entryPerimeter=0;" edge="1" parent="1">
          <mxGeometry width="50" height="50" relative="1" as="geometry">
            <mxPoint x="967.83" y="530" as="sourcePoint" />
            <mxPoint x="967.83" y="600" as="targetPoint" />
          </mxGeometry>
        </mxCell>
        <mxCell id="VpYOYdDEtLLiw2a9x_M3-37" value="ranking algorithm" style="rhombus;whiteSpace=wrap;html=1;" vertex="1" parent="1">
          <mxGeometry x="836" y="715" width="180" height="80" as="geometry" />
        </mxCell>
        <mxCell id="VpYOYdDEtLLiw2a9x_M3-39" value="" style="endArrow=classic;html=1;rounded=0;exitX=0.5;exitY=1;exitDx=0;exitDy=0;entryX=0.917;entryY=0;entryDx=0;entryDy=0;entryPerimeter=0;" edge="1" parent="1">
          <mxGeometry width="50" height="50" relative="1" as="geometry">
            <mxPoint x="885.6" y="660" as="sourcePoint" />
            <mxPoint x="885.6" y="730" as="targetPoint" />
          </mxGeometry>
        </mxCell>
        <mxCell id="VpYOYdDEtLLiw2a9x_M3-40" value="" style="endArrow=classic;html=1;rounded=0;exitX=0.5;exitY=1;exitDx=0;exitDy=0;entryX=0.917;entryY=0;entryDx=0;entryDy=0;entryPerimeter=0;" edge="1" parent="1">
          <mxGeometry width="50" height="50" relative="1" as="geometry">
            <mxPoint x="965.57" y="660" as="sourcePoint" />
            <mxPoint x="965.57" y="730" as="targetPoint" />
          </mxGeometry>
        </mxCell>
        <mxCell id="VpYOYdDEtLLiw2a9x_M3-41" value="" style="strokeWidth=2;html=1;shape=mxgraph.flowchart.annotation_2;align=left;labelPosition=right;pointerEvents=1;rotation=90;" vertex="1" parent="1">
          <mxGeometry x="860.5" y="315" width="59.5" height="244.5" as="geometry" />
        </mxCell>
        <mxCell id="VpYOYdDEtLLiw2a9x_M3-43" value="" style="endArrow=classic;html=1;rounded=0;edgeStyle=elbowEdgeStyle;" edge="1" parent="1">
          <mxGeometry width="50" height="50" relative="1" as="geometry">
            <mxPoint x="510" y="359.76" as="sourcePoint" />
            <mxPoint x="610" y="360" as="targetPoint" />
            <Array as="points" />
          </mxGeometry>
        </mxCell>
        <mxCell id="VpYOYdDEtLLiw2a9x_M3-44" value="" style="endArrow=classic;html=1;rounded=0;edgeStyle=elbowEdgeStyle;" edge="1" parent="1">
          <mxGeometry width="50" height="50" relative="1" as="geometry">
            <mxPoint x="730" y="359.76" as="sourcePoint" />
            <mxPoint x="890" y="400" as="targetPoint" />
            <Array as="points">
              <mxPoint x="890" y="360" />
            </Array>
          </mxGeometry>
        </mxCell>
      </root>
    </mxGraphModel>
  </diagram>
</mxfile>
